<mxfile host="app.diagrams.net" modified="2022-02-12T17:35:23.628Z" agent="5.0 (Macintosh; Intel Mac OS X 10_15_7) AppleWebKit/537.36 (KHTML, like Gecko) Chrome/97.0.4692.99 Safari/537.36" etag="bqOjjupOiHIQXSZ1HnXF" version="16.2.4" type="github">
  <diagram id="nXCF0-RRUXXwhmbzDTb0" name="Page-1">
    <mxGraphModel dx="837" dy="559" grid="1" gridSize="10" guides="1" tooltips="1" connect="1" arrows="1" fold="1" page="1" pageScale="1" pageWidth="850" pageHeight="1100" math="0" shadow="0">
      <root>
        <mxCell id="0" />
        <mxCell id="1" parent="0" />
        <mxCell id="Csnn2giZX9vNHjitmkDx-3" value="" style="edgeStyle=orthogonalEdgeStyle;rounded=0;orthogonalLoop=1;jettySize=auto;html=1;" edge="1" parent="1" source="Csnn2giZX9vNHjitmkDx-1" target="Csnn2giZX9vNHjitmkDx-2">
          <mxGeometry relative="1" as="geometry" />
        </mxCell>
        <mxCell id="Csnn2giZX9vNHjitmkDx-1" value="Create Record&amp;nbsp;" style="ellipse;whiteSpace=wrap;html=1;" vertex="1" parent="1">
          <mxGeometry x="365" y="50" width="120" height="80" as="geometry" />
        </mxCell>
        <mxCell id="Csnn2giZX9vNHjitmkDx-5" value="" style="edgeStyle=orthogonalEdgeStyle;rounded=0;orthogonalLoop=1;jettySize=auto;html=1;" edge="1" parent="1" source="Csnn2giZX9vNHjitmkDx-2" target="Csnn2giZX9vNHjitmkDx-4">
          <mxGeometry relative="1" as="geometry" />
        </mxCell>
        <mxCell id="Csnn2giZX9vNHjitmkDx-2" value="Entry in DB made for meta data (deactivated)&amp;nbsp;" style="whiteSpace=wrap;html=1;" vertex="1" parent="1">
          <mxGeometry x="365" y="160" width="120" height="60" as="geometry" />
        </mxCell>
        <mxCell id="Csnn2giZX9vNHjitmkDx-8" value="" style="edgeStyle=orthogonalEdgeStyle;rounded=0;orthogonalLoop=1;jettySize=auto;html=1;" edge="1" parent="1" source="Csnn2giZX9vNHjitmkDx-4">
          <mxGeometry relative="1" as="geometry">
            <mxPoint x="425" y="360" as="targetPoint" />
          </mxGeometry>
        </mxCell>
        <mxCell id="Csnn2giZX9vNHjitmkDx-4" value="Entry in Vault made for real data&amp;nbsp;&lt;br&gt;" style="whiteSpace=wrap;html=1;" vertex="1" parent="1">
          <mxGeometry x="365" y="260" width="120" height="60" as="geometry" />
        </mxCell>
        <mxCell id="Csnn2giZX9vNHjitmkDx-12" value="" style="edgeStyle=orthogonalEdgeStyle;rounded=0;orthogonalLoop=1;jettySize=auto;html=1;" edge="1" parent="1" source="Csnn2giZX9vNHjitmkDx-10">
          <mxGeometry relative="1" as="geometry">
            <mxPoint x="425" y="340" as="targetPoint" />
            <Array as="points">
              <mxPoint x="580" y="400" />
              <mxPoint x="580" y="340" />
            </Array>
          </mxGeometry>
        </mxCell>
        <mxCell id="Csnn2giZX9vNHjitmkDx-15" value="" style="edgeStyle=orthogonalEdgeStyle;rounded=0;orthogonalLoop=1;jettySize=auto;html=1;" edge="1" parent="1" source="Csnn2giZX9vNHjitmkDx-10" target="Csnn2giZX9vNHjitmkDx-14">
          <mxGeometry relative="1" as="geometry" />
        </mxCell>
        <mxCell id="Csnn2giZX9vNHjitmkDx-10" value="Payments Initiated" style="rhombus;whiteSpace=wrap;html=1;" vertex="1" parent="1">
          <mxGeometry x="385" y="360" width="80" height="80" as="geometry" />
        </mxCell>
        <mxCell id="Csnn2giZX9vNHjitmkDx-20" value="" style="edgeStyle=orthogonalEdgeStyle;rounded=0;orthogonalLoop=1;jettySize=auto;html=1;" edge="1" parent="1" source="Csnn2giZX9vNHjitmkDx-14" target="Csnn2giZX9vNHjitmkDx-19">
          <mxGeometry relative="1" as="geometry" />
        </mxCell>
        <mxCell id="Csnn2giZX9vNHjitmkDx-14" value="Mail with the passphrase sent to hier" style="whiteSpace=wrap;html=1;" vertex="1" parent="1">
          <mxGeometry x="365" y="470" width="120" height="60" as="geometry" />
        </mxCell>
        <mxCell id="Csnn2giZX9vNHjitmkDx-16" value="success" style="text;html=1;strokeColor=none;fillColor=none;align=center;verticalAlign=middle;whiteSpace=wrap;rounded=0;" vertex="1" parent="1">
          <mxGeometry x="430" y="440" width="60" height="30" as="geometry" />
        </mxCell>
        <mxCell id="Csnn2giZX9vNHjitmkDx-17" value="failed" style="text;html=1;strokeColor=none;fillColor=none;align=center;verticalAlign=middle;whiteSpace=wrap;rounded=0;" vertex="1" parent="1">
          <mxGeometry x="460" y="370" width="60" height="30" as="geometry" />
        </mxCell>
        <mxCell id="Csnn2giZX9vNHjitmkDx-23" value="" style="edgeStyle=orthogonalEdgeStyle;rounded=0;orthogonalLoop=1;jettySize=auto;html=1;" edge="1" parent="1" source="Csnn2giZX9vNHjitmkDx-19" target="Csnn2giZX9vNHjitmkDx-21">
          <mxGeometry relative="1" as="geometry" />
        </mxCell>
        <mxCell id="Csnn2giZX9vNHjitmkDx-19" value="Entry in schedular made. Record activated&amp;nbsp;" style="whiteSpace=wrap;html=1;" vertex="1" parent="1">
          <mxGeometry x="365" y="560" width="120" height="60" as="geometry" />
        </mxCell>
        <mxCell id="Csnn2giZX9vNHjitmkDx-21" value="End&amp;nbsp;" style="ellipse;whiteSpace=wrap;html=1;" vertex="1" parent="1">
          <mxGeometry x="365" y="650" width="120" height="80" as="geometry" />
        </mxCell>
        <mxCell id="Csnn2giZX9vNHjitmkDx-24" value="&lt;h1&gt;Notes&amp;nbsp;&lt;/h1&gt;&lt;div&gt;1. Data for creating Record&lt;/div&gt;&lt;div&gt;&lt;ul&gt;&lt;li&gt;Secret (words for numbers for eg. OTP)&lt;/li&gt;&lt;li&gt;Passphrase (optional)&amp;nbsp;&lt;/li&gt;&lt;li&gt;Ping Duration (3 months min - 1 year max)&amp;nbsp;&lt;/li&gt;&lt;li&gt;Ping Duration for no pong (1 week ) [Non Configurable]&amp;nbsp;&lt;/li&gt;&lt;li&gt;Ping lifecycle duration for no pong (3 months)&amp;nbsp;&lt;/li&gt;&lt;/ul&gt;&lt;div&gt;2. Passphrase can be saved here. User can choose to send this passphrase whenever he wants. Incase of no pong, passphrase is sent automatically.&amp;nbsp;&lt;/div&gt;&lt;/div&gt;&lt;div&gt;3. First Entry is made in schedular when the payment is successfully done. Further scheduling done according to the user interactions&amp;nbsp;&lt;/div&gt;&lt;div&gt;&lt;br&gt;&lt;/div&gt;&lt;div&gt;&lt;b&gt;&lt;font style=&quot;font-size: 18px&quot;&gt;Services&lt;/font&gt;&lt;/b&gt;&lt;/div&gt;&lt;div&gt;&lt;ol&gt;&lt;li&gt;Payments with Stripe&lt;/li&gt;&lt;li&gt;Vault&amp;nbsp;&lt;/li&gt;&lt;li&gt;Schedular&amp;nbsp;&lt;/li&gt;&lt;/ol&gt;&lt;/div&gt;&lt;p&gt;&lt;/p&gt;" style="text;html=1;strokeColor=none;fillColor=none;spacing=5;spacingTop=-20;whiteSpace=wrap;overflow=hidden;rounded=0;" vertex="1" parent="1">
          <mxGeometry x="140" y="760" width="590" height="340" as="geometry" />
        </mxCell>
      </root>
    </mxGraphModel>
  </diagram>
</mxfile>
